<svg xmlns="http://www.w3.org/2000/svg" width="124" height="45" fill="none" viewBox="0 0 124 45"><g fill="#fff" clip-path="url(#clip0)"><path d="m1.59.35 1.633 1.36v6.127h8.827l1.2 1.511-1.204 1.438H3.223v5.858L1.59 17.999 0 16.644V1.706Zm4.774 15.44h6.73l1.127 1.434-1.2 1.515H6.364l-1.088-1.398ZM6.598 0h6.419l1.2 1.511-1.2 1.438h-6.34L5.393 1.554ZM42.37 2.91l1.438 1.55-1.438 1.554H20.636l-1.4-1.554 1.4-1.55ZM18.071 9.348l1.356-1.164 1.36 1.164v1.71c0 2.87.776 5.235 4.233 5.235h.698c3.105 0 4.812-2.095 4.812-5.356V9.31l1.322-1.164 1.36 1.125v1.784c0 2.91.853 5.083 4.193 5.083h.58c3.263 0 3.843-2.485 3.882-5.2V9.192l1.321-1.086 1.396 1.125v1.745c-.04 3.763-1.049 8.071-6.481 8.071h-.58c-3.224 0-4.97-1.437-5.668-3.221-.814 1.823-2.989 3.416-5.939 3.416h-.701c-5.589 0-7.101-3.373-7.14-8.11V9.348Zm11.103 28.088L28.4 35.34l2.018-.58 7.105 3.217v-6.633l1.438-1.204 1.473 1.204v8.032l2.639 1.203.736 1.94-2.058.736Zm12.654-14.163 1.941.892-.62 1.979-17.47 8.11-2.097-.815.853-2.017ZM16.621 34.331l1.707 1.399c-.155 4.927-4.388 7.525-9.392 7.525H8.43c-2.486 0-5.393-.93-7.256-2.715l.191-1.979 1.824-.233c1.36 1.164 3.262 1.978 5.047 1.978h.546c3.378 0 5.978-1.394 6.25-4.693Zm-1.593-3.22c-.156-3.417-2.717-4.772-6.252-4.772H8.23c-2.096 0-3.686.814-5.046 1.978l-1.82-.233-.195-1.98c1.863-1.822 4.462-2.675 7.183-2.675h.542c5.046 0 9.279 2.563 9.43 7.564l-1.707 1.36Z"/><path d="M60.866 5.89H56.82c.09.786.639 1.367 1.445 1.367.491 0 .943-.195 1.208-.592l1.287.035c-.457 1.012-1.4 1.546-2.495 1.546-1.527 0-2.654-1.137-2.654-2.707s1.103-2.7 2.62-2.7c1.379 0 2.63.924 2.63 3.039v.012Zm-4.046-.83h2.767a1.34 1.34 0 0 0-1.345-1.23c-.76-.001-1.285.501-1.422 1.23"/><path d="M65.044 4.363a2.1 2.1 0 0 0-1.344-.557c-.445 0-.67.237-.67.479 0 .284.124.42.478.545l.889.308c.955.33 1.356.853 1.356 1.492 0 .817-.627 1.616-1.913 1.616-.842 0-1.676-.343-2.163-.806l.67-.877c.386.386.99.67 1.47.67.455 0 .751-.194.751-.502 0-.331-.16-.468-.728-.658l-.854-.297c-.717-.249-1.114-.786-1.114-1.421 0-.752.65-1.515 1.878-1.515.604 0 1.41.237 1.949.74Z"/><path d="M69.432 7.253c.593 0 1.049-.285 1.31-.752l.978.502c-.41.764-1.31 1.24-2.288 1.24-1.528 0-2.72-1.127-2.72-2.7 0-1.582 1.196-2.707 2.72-2.707.978 0 1.879.479 2.288 1.238l-.978.503c-.261-.468-.718-.752-1.31-.752-.935 0-1.57.74-1.57 1.718s.635 1.71 1.57 1.71"/><path d="M75.286 2.84c1.516 0 2.743 1.125 2.743 2.699 0 1.57-1.231 2.707-2.743 2.707-1.516 0-2.732-1.137-2.732-2.707 0-1.574 1.216-2.7 2.732-2.7m0 .989c-.936 0-1.583.728-1.583 1.706s.651 1.718 1.583 1.718c.935 0 1.582-.74 1.582-1.718s-.647-1.706-1.582-1.706"/><path d="M80.5.14h-1.126v7.965H80.5Z"/><path d="M85.114 4.659c0-.546-.409-.83-1.071-.83-.558 0-1.06.238-1.446.545l-.534-.841c.432-.374 1.161-.693 2.061-.693 1.357 0 2.128.751 2.128 1.842V8.11h-1.138v-.534c-.296.48-.935.67-1.469.67-1.173 0-1.855-.67-1.855-1.616 0-1.002.705-1.57 1.855-1.57h1.103c.261 0 .366-.113.366-.32Zm0 1.573v-.444q-.153.115-.545.113h-.682c-.604 0-.912.261-.912.693 0 .398.296.764.912.764.635 0 1.227-.331 1.227-1.126"/><path d="M57.086 19.744H55.96V11.78h1.126v3.595c.273-.514.99-.9 1.742-.9 1.493 0 2.572 1.126 2.572 2.696s-1.102 2.71-2.595 2.71c-.74 0-1.434-.362-1.719-.876Zm-.035-2.57c0 .977.651 1.729 1.594 1.729.935 0 1.594-.752 1.594-1.73s-.659-1.717-1.594-1.717c-.947 0-1.594.74-1.594 1.718"/><path d="M65.648 15.616h-.592c-.73 0-1.209.42-1.209 1.58v2.547h-1.126V14.61h1.103v.818c.195-.567.705-.91 1.422-.91.125 0 .261.012.398.035v1.063Z"/><path d="M68.177 19.744H67.04v-4.199h-.775v-.935h1.913Zm-.635-7.782c.444 0 .807.366.807.81a.8.8 0 0 1-.807.799.795.795 0 0 1-.799-.799c0-.448.355-.81.799-.81"/><path d="M71.287 12.542v2.072h1.208v.935h-1.208v2.879c0 .354.261.42.523.42.397 0 .693-.046.693-.046v.947s-.557.058-.978.058c-.616 0-1.38-.125-1.38-1.126v-3.132h-.842v-.935h.846v-2.072Z"/><path d="M76.685 16.297c0-.545-.41-.83-1.072-.83-.557 0-1.06.238-1.446.546l-.534-.842c.433-.373 1.162-.693 2.062-.693 1.356 0 2.128.752 2.128 1.842v3.428h-1.138v-.534c-.297.48-.936.67-1.47.67-1.173 0-1.855-.67-1.855-1.616 0-1.001.706-1.57 1.855-1.57h1.103c.261 0 .367-.113.367-.32Zm-1.606-4.518h1.345l1.083 1.889h-1.161l-.593-1.06-.592 1.06h-1.15Zm1.606 6.088v-.444q-.154.115-.546.113h-.682c-.604 0-.912.26-.912.693 0 .397.296.764.912.764.635.003 1.228-.328 1.228-1.126"/><path d="M80.535 14.907c0 .148 0 .237-.012.342a2.18 2.18 0 0 1 1.676-.775c1.208 0 1.913.752 1.913 1.924v3.346h-1.138v-3.186c0-.728-.444-1.071-1.013-1.071-.491 0-.967.25-1.4.752v3.506h-1.126V14.61h1.107v.296Z"/><path d="M87.086 19.744h-1.138v-4.199h-.776v-.935h1.913Zm-.639-7.782c.444 0 .807.366.807.81a.8.8 0 0 1-.807.799.795.795 0 0 1-.799-.799.805.805 0 0 1 .799-.81"/><path d="M91.12 18.891c.592 0 1.048-.284 1.31-.752l.977.503c-.409.763-1.31 1.239-2.287 1.239-1.528 0-2.72-1.126-2.72-2.7 0-1.581 1.196-2.707 2.72-2.707.978 0 1.878.48 2.287 1.239l-.978.502c-.261-.467-.717-.752-1.31-.752-.935 0-1.57.74-1.57 1.718s.635 1.71 1.57 1.71"/><path d="M97.566 16.297c0-.545-.41-.83-1.072-.83-.558 0-1.06.238-1.446.546l-.534-.842c.433-.374 1.161-.693 2.062-.693 1.356 0 2.128.752 2.128 1.842v3.428h-1.138v-.534c-.297.48-.936.67-1.47.67-1.173 0-1.855-.67-1.855-1.616 0-1.001.706-1.57 1.855-1.57H97.2c.261 0 .367-.113.367-.32Zm0 1.57v-.444c-.102.078-.285.113-.546.113h-.682c-.604 0-.912.26-.912.693 0 .397.296.763.912.763.635.004 1.228-.327 1.228-1.125"/><path d="M106.95 18.993c-.273.514-.967.888-1.719.888-1.492 0-2.584-1.138-2.584-2.711 0-1.57 1.072-2.696 2.561-2.696.764 0 1.469.386 1.754.9-.012-.35-.012-.775-.012-1.173v-2.427h1.138v7.966h-1.138Zm-3.145-1.82c0 .978.651 1.73 1.594 1.73.935 0 1.594-.752 1.594-1.73s-.663-1.717-1.594-1.717c-.943 0-1.594.74-1.594 1.718"/><path d="M114.663 17.528h-4.042c.09.787.639 1.367 1.446 1.367.491 0 .947-.195 1.208-.592l1.286.035c-.456 1.013-1.399 1.546-2.494 1.546-1.528 0-2.654-1.137-2.654-2.707s1.107-2.699 2.619-2.699c1.38 0 2.631.923 2.631 3.038Zm-4.046-.834h2.767a1.34 1.34 0 0 0-1.344-1.23c-.76.003-1.286.502-1.423 1.23"/><path d="M58.87 27.936c0-.546-.409-.83-1.072-.83-.557 0-1.06.237-1.445.545l-.534-.841c.432-.374 1.161-.694 2.061-.694 1.356 0 2.128.752 2.128 1.843v3.428H58.87v-.538c-.296.48-.935.67-1.47.67-1.172 0-1.854-.67-1.854-1.616 0-1.002.705-1.57 1.855-1.57h1.103c.261 0 .366-.113.366-.32Zm0 1.57v-.444q-.153.114-.545.112h-.682c-.605 0-.912.261-.912.693 0 .398.296.764.912.764.635 0 1.227-.331 1.227-1.126"/><path d="M64.545 27.25h-.592c-.73 0-1.209.42-1.209 1.581v2.547h-1.126v-5.13h1.103v.818c.195-.568.705-.91 1.423-.91.124 0 .26.011.397.035v1.06Z"/><path d="M67.153 24.177v2.072h1.208v.935h-1.208v2.878c0 .355.26.42.522.42.397 0 .694-.046.694-.046v.947s-.558.058-.979.058c-.615 0-1.38-.124-1.38-1.126v-3.128h-.842v-.935h.842V24.18h1.142Z"/><path d="M74.545 29.163h-4.041c.09.787.64 1.367 1.446 1.367.49 0 .947-.195 1.208-.592l1.286.035c-.456 1.013-1.399 1.546-2.494 1.546-1.528 0-2.654-1.137-2.654-2.707s1.107-2.7 2.619-2.7c1.38 0 2.63.924 2.63 3.039Zm-4.041-.83h2.767a1.34 1.34 0 0 0-1.344-1.23c-.764 0-1.287.502-1.423 1.23"/><path d="M78.727 27.64a2.1 2.1 0 0 0-1.344-.557c-.445 0-.671.237-.671.479 0 .284.124.42.479.545l.889.308c.954.33 1.356.853 1.356 1.491 0 .818-.628 1.617-1.914 1.617-.842 0-1.672-.343-2.163-.806l.67-.877c.386.386.99.67 1.47.67.456 0 .752-.195.752-.502 0-.331-.16-.468-.729-.659l-.853-.296c-.717-.249-1.115-.787-1.115-1.421 0-.752.647-1.516 1.879-1.516.604 0 1.41.238 1.948.74Z"/><path d="M85.788 30.53c.592 0 1.048-.285 1.31-.752l.977.503c-.409.763-1.31 1.238-2.287 1.238-1.528 0-2.72-1.125-2.72-2.7 0-1.58 1.196-2.71 2.72-2.71.978 0 1.878.479 2.287 1.242l-.978.503c-.261-.467-.717-.752-1.31-.752-.935 0-1.57.74-1.57 1.718s.635 1.71 1.57 1.71"/><path d="M92.246 27.25h-.592c-.729 0-1.208.42-1.208 1.581v2.547H89.32v-5.13h1.103v.818c.194-.568.705-.91 1.422-.91.124 0 .26.011.397.035v1.06Z"/><path d="M94.775 31.383h-1.138v-4.199h-.776v-.935h1.913Zm-.64-7.787c.445 0 .807.367.807.81a.8.8 0 0 1-.807.795.79.79 0 0 1-.799-.795.807.807 0 0 1 .799-.81"/><path d="M99.355 27.936c0-.546-.41-.83-1.072-.83-.558 0-1.06.237-1.446.545l-.534-.841c.433-.374 1.161-.694 2.062-.694 1.356 0 2.128.752 2.128 1.843v3.428h-1.138v-.538c-.297.48-.936.67-1.47.67-1.173 0-1.855-.67-1.855-1.616 0-1.002.706-1.57 1.855-1.57h1.103c.261 0 .367-.113.367-.32Zm0 1.57v-.444q-.154.114-.546.112h-.682c-.604 0-.912.261-.912.693 0 .398.296.764.912.764.635 0 1.228-.331 1.228-1.126"/><path d="M103.544 24.177v2.072h1.208v.935h-1.208v2.878c0 .355.261.42.522.42.398 0 .694-.046.694-.046v.947s-.557.058-.978.058c-.616 0-1.38-.124-1.38-1.126v-3.128h-.841v-.935h.841V24.18h1.142Z"/><path d="M107.394 31.383h-1.138v-4.199h-.776v-.935h1.914Zm-.639-7.787c.444 0 .807.367.807.81a.8.8 0 0 1-.807.795.79.79 0 0 1-.799-.795.81.81 0 0 1 .799-.81"/><path d="m111.12 30.3 1.376-4.051h1.208l-1.89 5.134h-1.434l-1.824-5.134h1.266Z"/><path d="M117.624 27.936c0-.546-.409-.83-1.072-.83-.557 0-1.06.237-1.445.545l-.534-.841c.432-.374 1.161-.694 2.061-.694 1.356 0 2.128.752 2.128 1.843v3.428h-1.138v-.538c-.296.48-.935.67-1.469.67-1.173 0-1.855-.67-1.855-1.616 0-1.002.705-1.57 1.855-1.57h1.103c.261 0 .366-.113.366-.32Zm0 1.57v-.444q-.152.114-.546.112h-.682c-.604 0-.911.261-.911.693 0 .398.296.764.911.764.636 0 1.228-.331 1.228-1.126"/><path d="M123.294 27.64a2.1 2.1 0 0 0-1.345-.557c-.444 0-.67.237-.67.479 0 .284.125.42.479.545l.889.308c.955.33 1.356.853 1.356 1.491 0 .818-.627 1.617-1.913 1.617-.842 0-1.672-.343-2.163-.806l.67-.877c.386.386.99.67 1.469.67.456 0 .752-.195.752-.502 0-.331-.159-.468-.728-.659l-.854-.296c-.717-.249-1.114-.787-1.114-1.421 0-.752.647-1.516 1.878-1.516.604 0 1.411.238 1.949.74Z"/><path d="M62.55 42.998h-1.528l-.854-.935c-.49.682-1.208 1.071-2.198 1.071-1.41 0-2.322-1-2.322-2.173 0-.923.502-1.683 1.38-2.392-.535-.658-.695-1.125-.695-1.682 0-1.31 1.072-1.967 2.128-1.967 1.002 0 1.992.592 1.992 1.776 0 .296-.07.65-.285.977l-.99-.183c.113-.26.184-.49.184-.67 0-.533-.398-.9-.9-.9-.64 0-.979.445-.979.959 0 .409.195.818.682 1.379.694.783 1.766 1.936 1.89 2.072.32-.557.58-1.184.729-1.605h1.286c-.343.912-.81 1.753-1.22 2.423l1.695 1.811v.039Zm-4.884-3.63c-.592.615-.818 1.024-.818 1.581 0 .717.592 1.15 1.196 1.15.515 0 1.072-.273 1.368-.819Z"/><path d="M67.78 35.815v2.072h1.208v.935H67.78V41.7c0 .355.26.422.522.422.397 0 .694-.047.694-.047v.946s-.558.059-.979.059c-.615 0-1.38-.125-1.38-1.126v-3.128h-.842v-.935h.846V35.82h1.138Z"/><path d="M75.172 40.801h-4.041c.09.787.64 1.367 1.446 1.367.49 0 .947-.194 1.208-.592l1.286.035c-.456 1.013-1.4 1.547-2.494 1.547-1.528 0-2.654-1.138-2.654-2.708s1.107-2.699 2.619-2.699c1.38 0 2.63.923 2.63 3.038Zm-4.045-.83h2.767a1.34 1.34 0 0 0-1.345-1.23c-.76 0-1.286.502-1.422 1.23"/><path d="M78.793 42.168c.592 0 1.048-.284 1.309-.752l.978.503c-.41.763-1.31 1.239-2.287 1.239-1.528 0-2.72-1.126-2.72-2.7 0-1.581 1.196-2.71 2.72-2.71.978 0 1.878.478 2.287 1.242l-.978.502c-.261-.467-.717-.751-1.31-.751-.935 0-1.57.74-1.57 1.717s.64 1.71 1.57 1.71"/><path d="M83.431 38.184c0 .148 0 .237-.012.342a2.18 2.18 0 0 1 1.676-.775c1.208 0 1.914.752 1.914 1.924v3.346H85.87v-3.186c0-.728-.445-1.071-1.014-1.071-.49 0-.966.25-1.399.752v3.506h-1.126v-5.134h1.103v.296Z"/><path d="M90.99 37.751c1.517 0 2.744 1.126 2.744 2.7 0 1.57-1.231 2.707-2.743 2.707-1.516 0-2.732-1.138-2.732-2.708 0-1.573 1.22-2.699 2.732-2.699m0 .99c-.935 0-1.581.728-1.581 1.706s.65 1.717 1.582 1.717c.935 0 1.582-.74 1.582-1.717.004-.978-.647-1.706-1.582-1.706"/><path d="M96.209 35.052h-1.126v7.965h1.126Z"/><path d="M100.286 37.751c1.516 0 2.743 1.126 2.743 2.7 0 1.57-1.231 2.707-2.743 2.707-1.516 0-2.732-1.138-2.732-2.708 0-1.573 1.22-2.699 2.732-2.699m0 .99c-.936 0-1.583.728-1.583 1.706s.651 1.717 1.583 1.717c.935 0 1.582-.74 1.582-1.717.004-.978-.647-1.706-1.582-1.706"/><path d="M109.433 37.888v5.543c0 .798-.398 1.569-1.618 1.569h-2.151v-.935h1.98c.308 0 .651-.082.651-.545v-1.266c-.273.502-.967.876-1.719.876-1.481 0-2.576-1.114-2.576-2.683 0-1.582 1.072-2.7 2.564-2.7.752 0 1.458.386 1.742.9 0-.113-.011-.237-.011-.397v-.366h1.138Zm-2.685 4.28c.943 0 1.593-.74 1.593-1.718 0-.989-.65-1.729-1.593-1.729-.936 0-1.583.74-1.583 1.73-.004.977.647 1.717 1.583 1.717"/><path d="M112.464 43.021h-1.138v-4.203h-.775v-.935h1.913Zm-.639-7.786c.444 0 .807.366.807.81a.8.8 0 0 1-.807.795.79.79 0 0 1-.799-.795.81.81 0 0 1 .799-.81"/><path d="M117.044 39.57c0-.545-.409-.83-1.072-.83-.557 0-1.06.238-1.446.546l-.533-.842c.432-.373 1.161-.693 2.061-.693 1.356 0 2.128.752 2.128 1.843v3.428h-1.138v-.534c-.296.479-.935.67-1.469.67-1.173 0-1.855-.67-1.855-1.617 0-1 .705-1.57 1.855-1.57h1.103c.261 0 .366-.112.366-.319Zm0 1.574V40.7c-.101.078-.284.113-.546.113h-.682c-.604 0-.912.26-.912.693 0 .397.297.764.912.764.636 0 1.228-.332 1.228-1.126"/></g><defs><clipPath id="clip0"><path fill="#fff" d="M0 0h124v45H0Z"/></clipPath></defs></svg>